<svg id="horizontal_dark" data-name="horizontal dark" xmlns="http://www.w3.org/2000/svg" width="1468.107" height="199.999" viewBox="0 0 11811 1609">
  <defs>
    <style>
      .cls-1 {
        fill: #b5281d;
      }

      .cls-1, .cls-2, .cls-3 {
        fill-rule: evenodd;
      }

      .cls-2 {
        fill: #e3e2cb;
      }

      .cls-3 {
        fill: #fff;
        opacity: 0.2;
        mix-blend-mode: overlay;
      }
    </style>
  </defs>
  <path id="TWIN" class="cls-1" d="M8929.11,445.278c0,15.272-15.29,27.769-33.35,27.769H8630.33V1415.8c0,18.05-12.51,33.33-26.41,33.33H8439.94c-13.9,0-26.4-15.28-26.4-33.33V473.047H8142.55a27.867,27.867,0,0,1-27.8-27.769V282.829c0-15.273,12.51-26.38,27.8-26.38h753.21c18.06,0,33.35,11.107,33.35,26.38V445.278ZM9983.88,1450.51L9529.46,996.491,9075.03,1450.51V285.606c0-15.273,12.51-27.769,26.4-27.769h161.21c15.28,0,26.4,12.5,26.4,27.769V934.011l240.42-240.2,240.41,240.2v-648.4a27.866,27.866,0,0,1,27.8-27.769h159.81c15.29,0,26.4,12.5,26.4,27.769v1164.9Zm615.62-978.852V1231.14h182.1c19.4,0,34.7,12.5,34.7,27.77v162.45c0,15.27-15.3,27.77-34.7,27.77h-589.3a27.927,27.927,0,0,1-27.8-27.77V1258.91a27.927,27.927,0,0,1,27.8-27.77h189V471.658h-189c-15.2,0-27.8-11.108-27.8-26.38V282.829a27.925,27.925,0,0,1,27.8-27.769h589.3c19.4,0,34.7,12.5,34.7,27.769V445.278c0,15.272-15.3,26.38-34.7,26.38h-182.1Zm1211.8,985.8-597.5-651.186V1421.36c0,15.27-11.2,27.77-26.4,27.77h-162.6a27.862,27.862,0,0,1-27.8-27.77V248.118L11594.5,899.3V284.218c0-15.273,12.5-27.769,26.4-27.769h164c13.9,0,26.4,12.5,26.4,27.769V1457.46Z"/>
  <path id="MOTION" class="cls-2" d="M1873.54,257.837L2327.97,711.86,2782.4,257.837v1164.9c0,15.28-11.12,27.77-26.41,27.77H2596.18a27.854,27.854,0,0,1-27.79-27.77V772.951l-240.42,240.2-240.42-240.2V1422.74c0,15.28-11.11,27.77-26.4,27.77h-161.2c-13.9,0-26.41-12.49-26.41-27.77V257.837ZM3532.83,1450.51c-329.35,0-597.56-267.97-597.56-597.029s268.21-597.032,597.56-597.032,597.57,267.97,597.57,597.032S3862.19,1450.51,3532.83,1450.51Zm0-977.463c-209.84,0-380.77,170.779-380.77,380.434s170.93,379.049,380.77,379.049,379.39-169.39,379.39-379.049S3742.67,473.047,3532.83,473.047ZM4951.7,445.278c0,15.272-15.28,27.769-33.35,27.769H4652.92V1415.8c0,18.05-12.5,33.33-26.4,33.33H4462.54c-13.9,0-26.41-15.28-26.41-33.33V473.047H4165.14a27.865,27.865,0,0,1-27.79-27.769V282.829c0-15.273,12.51-26.38,27.79-26.38h753.21c18.07,0,33.35,11.107,33.35,26.38V445.278Zm567,26.38V1231.14h182.05c19.45,0,34.74,12.5,34.74,27.77v162.45c0,15.27-15.29,27.77-34.74,27.77H5111.52a27.867,27.867,0,0,1-27.79-27.77V1258.91a27.867,27.867,0,0,1,27.79-27.77h189V471.658h-189c-15.28,0-27.79-11.108-27.79-26.38V282.829a27.864,27.864,0,0,1,27.79-27.769h589.23c19.45,0,34.74,12.5,34.74,27.769V445.278c0,15.272-15.29,26.38-34.74,26.38H5518.7Zm883.84,978.852c-329.35,0-597.56-267.97-597.56-597.029s268.21-597.032,597.56-597.032,597.57,267.97,597.57,597.032S6731.9,1450.51,6402.54,1450.51Zm0-977.463c-209.84,0-380.77,170.779-380.77,380.434s170.93,379.049,380.77,379.049,379.39-169.39,379.39-379.049S6612.39,473.047,6402.54,473.047ZM7967.33,1457.46L7369.77,806.274V1421.36c0,15.27-11.12,27.77-26.41,27.77H7180.77a27.86,27.86,0,0,1-27.79-27.77V248.118L7750.54,899.3V284.218c0-15.273,12.51-27.769,26.41-27.769h163.98c13.9,0,26.4,12.5,26.4,27.769V1457.46Z"/>
  <path id="star" class="cls-1" d="M847.051-.585l203.259,610.2,643.66,4.58L1175.94,995.9l194.54,613.032L847.051,1234.64,323.622,1608.93,518.165,995.9,0.124,614.2l643.665-4.58Z"/>
  <path id="phong_copie" data-name="phong copie" class="cls-3" d="M1632.04,659.827C1216.34,680.677,586.5,809.77,398.356,1499.57q-10.1,37.035-20.148,70.33l-54.586,39.03L518.165,995.9,0.124,614.2l643.665-4.58L847.051-.585l203.259,610.2,643.66,4.58Z"/>
</svg>
